HIERARCHY
ROOT Hips
{
	OFFSET 0.000000 0.000000 0.000000
	CHANNELS 6 Xposition Yposition Zposition Xrotation Yrotation Zrotation
	JOINT LeftUpLeg_virtual
	{
		OFFSET 0.000000 0.000000 0.000000
		CHANNELS 3 Xrotation Yrotation Zrotation
		JOINT LeftUpLeg
		{
			OFFSET 10.205400 -3.823500 0.155100
			CHANNELS 3 Xrotation Yrotation Zrotation
			JOINT LeftLeg
			{
				OFFSET 0.708757 -12.982077 0.567790
				CHANNELS 3 Xrotation Yrotation Zrotation
				JOINT LeftFoot
				{
					OFFSET -0.708756 -10.717838 -2.184338
					CHANNELS 3 Xrotation Yrotation Zrotation
					JOINT LeftToeBase
					{
						OFFSET 0.108149 -7.191104 7.560241
						CHANNELS 3 Xrotation Yrotation Zrotation
						JOINT LeftToe_End
						{
							OFFSET 0.070230 0.081724 4.490308
							CHANNELS 3 Xrotation Yrotation Zrotation
							End Site
							{
								OFFSET 0 0 0
							}
						}
					}
				}
			}
		}
	}
	JOINT RightUpLeg_virtual
	{
		OFFSET 0.000000 0.000000 0.000000
		CHANNELS 3 Xrotation Yrotation Zrotation
		JOINT RightUpLeg
		{
			OFFSET -10.205400 -3.823500 0.005500
			CHANNELS 3 Xrotation Yrotation Zrotation
			JOINT RightLeg
			{
				OFFSET -0.708756 -12.982134 0.610632
				CHANNELS 3 Xrotation Yrotation Zrotation
				JOINT RightFoot
				{
					OFFSET 0.708754 -10.717769 -1.945823
					CHANNELS 3 Xrotation Yrotation Zrotation
					JOINT RightToeBase
					{
						OFFSET -0.108140 -7.191069 7.372968
						CHANNELS 3 Xrotation Yrotation Zrotation
						JOINT RightToe_End
						{
							OFFSET -0.070227 0.081735 4.479403
							CHANNELS 3 Xrotation Yrotation Zrotation
							End Site
							{
								OFFSET 0 0 0
							}
						}
					}
				}
			}
		}
	}
	JOINT Spine_virtual
	{
		OFFSET 0.000000 0.000000 0.000000
		CHANNELS 3 Xrotation Yrotation Zrotation
		JOINT Spine
		{
			OFFSET 0.000000 6.876099 0.125700
			CHANNELS 3 Xrotation Yrotation Zrotation
			JOINT Spine1
			{
				OFFSET 0.000000 5.730043 0.104720
				CHANNELS 3 Xrotation Yrotation Zrotation
				JOINT Spine1_split
				{
					OFFSET 0.000000 5.730043 0.104720
					CHANNELS 3 Xrotation Yrotation Zrotation
					JOINT Spine2
					{
						OFFSET 0.000000 5.730043 0.104720
						CHANNELS 3 Xrotation Yrotation Zrotation
						JOINT Neck_virtual
						{
							OFFSET 0.000000 0.000000 0.000000
							CHANNELS 3 Xrotation Yrotation Zrotation
							JOINT Neck
							{
								OFFSET 0.000000 10.314075 0.188496
								CHANNELS 3 Xrotation Yrotation Zrotation
								JOINT Head
								{
									OFFSET 0.000000 7.643700 -2.377400
									CHANNELS 3 Xrotation Yrotation Zrotation
									JOINT HeadTop_End
									{
										OFFSET 0.000000 43.788605 -13.619600
										CHANNELS 3 Xrotation Yrotation Zrotation
										End Site
										{
											OFFSET 0 0 0
										}
									}
								}
							}
						}
						JOINT LeftShoulder_virtual
						{
							OFFSET 0.000000 0.000000 0.000000
							CHANNELS 3 Xrotation Yrotation Zrotation
							JOINT LeftShoulder
							{
								OFFSET 2.196100 4.412489 0.087492
								CHANNELS 3 Xrotation Yrotation Zrotation
								JOINT LeftShoulder_split
								{
									OFFSET 2.196100 4.412489 0.087492
									CHANNELS 3 Xrotation Yrotation Zrotation
									JOINT LeftArm
									{
										OFFSET 8.771219 -2.981674 -0.026999
										CHANNELS 3 Xrotation Yrotation Zrotation
										JOINT LeftForeArm
										{
											OFFSET 8.512804 0.000000 -0.000000
											CHANNELS 3 Xrotation Yrotation Zrotation
											JOINT LeftHand
											{
												OFFSET 18.484802 0.000000 -0.000000
												CHANNELS 3 Xrotation Yrotation Zrotation
												End Site
												{
													OFFSET 0 0 0
												}
											}
										}
									}
								}
							}
						}
						JOINT RightShoulder_virtual
						{
							OFFSET 0.000000 0.000000 0.000000
							CHANNELS 3 Xrotation Yrotation Zrotation
							JOINT RightShoulder
							{
								OFFSET -2.196100 4.412496 0.070690
								CHANNELS 3 Xrotation Yrotation Zrotation
								JOINT RightShoulder_split
								{
									OFFSET -2.196100 4.412496 0.070690
									CHANNELS 3 Xrotation Yrotation Zrotation
									JOINT RightArm
									{
										OFFSET -8.771282 -2.981682 -0.094208
										CHANNELS 3 Xrotation Yrotation Zrotation
										JOINT RightForeArm
										{
											OFFSET -8.494598 0.000000 0.000000
											CHANNELS 3 Xrotation Yrotation Zrotation
											JOINT RightHand
											{
												OFFSET -18.483803 0.000000 0.000001
												CHANNELS 3 Xrotation Yrotation Zrotation
												End Site
												{
													OFFSET 0 0 0
												}
											}
										}
									}
								}
							}
						}
					}
				}
			}
		}
	}
}
MOTION
Frames: 7
Frame Time: 0.03333333
-0.154083 32.209274 2.609543 0.000000 0.000000 0.000000 117.931918 -82.624129 114.308489 -4.650102 33.022872 24.214726 26.737716 7.001836 -4.987204 -28.103397 17.117403 -27.992234 2.785652 -5.489179 -4.438922 0.000000 0.000000 0.000000 119.836352 -82.704213 115.858887 -19.585287 -14.468528 -11.275948 23.865449 -11.873597 1.631076 -13.518026 -12.147401 28.627242 4.128137 3.195905 -10.707861 0.000000 0.000000 0.000000 80.974017 -84.190961 77.274240 8.146245 -1.322116 1.754186 0.587882 -0.306257 2.350296 0.163076 -0.464290 -0.009823 0.000000 0.000000 0.000000 2.400948 2.131009 2.685703 -11.015454 19.375392 18.061124 -2.807347 1.577069 3.088501 0.000000 0.000000 0.000000 1.805319 -0.162315 2.682203 -0.085035 1.153047 -5.234277 -0.364873 -5.333338 -1.602436 -12.945655 -0.360825 -63.363822 19.855157 -20.347700 -0.020888 0.000000 0.000000 0.000000 0.783164 -0.168942 3.372344 -0.541686 0.655745 21.512850 -15.384800 -6.556572 -0.923138 12.653748 30.244252 45.571760 8.622201 33.080116 -2.368661 0.000000 0.000000 0.000000 
0.054705 32.032787 1.392448 0.000000 0.000000 0.000000 129.855201 -82.301601 126.655449 -2.798767 33.232678 25.103911 28.149841 8.319402 -4.914110 -26.009499 17.488616 -30.757763 -0.642860 -5.614631 -4.769498 0.000000 0.000000 0.000000 129.663519 -82.329618 126.011348 -21.514544 -12.638083 -9.758944 25.652073 -12.065522 1.132101 -12.211144 -11.865373 29.463281 3.637706 2.864180 -11.200382 0.000000 0.000000 0.000000 97.654746 -84.949098 94.707205 8.335114 -2.307938 1.576557 0.230186 -0.712687 2.658924 0.151687 -0.356509 -0.015679 0.000000 0.000000 0.000000 2.268516 1.818824 2.901236 -10.566251 18.986521 16.425560 -2.108472 3.177979 4.462913 0.000000 0.000000 0.000000 1.586623 -0.457919 2.945883 -0.102897 0.501961 -5.706847 -0.681448 -5.204282 -1.723500 -11.303966 -1.967318 -64.169156 18.326227 -19.335103 -0.594892 0.000000 0.000000 0.000000 0.602051 -0.479530 3.671849 -0.609281 0.666621 21.352124 -14.616166 -6.688781 -0.469143 10.897999 31.329183 46.201657 7.779391 32.382159 -2.560795 0.000000 0.000000 0.000000 
0.246923 31.810722 -0.012709 0.000000 0.000000 0.000000 138.552955 -82.314312 135.559803 -1.615739 31.764194 26.570184 30.355789 8.905562 -4.935501 -23.021480 16.872900 -33.106316 -6.876305 -5.451153 -5.644741 0.000000 0.000000 0.000000 137.196056 -82.241946 133.649303 -22.643178 -11.065047 -7.285473 27.366529 -11.704475 0.469738 -12.034137 -11.550943 29.588888 3.707161 2.570194 -12.098562 0.000000 0.000000 0.000000 114.385554 -85.366587 111.918346 8.633467 -3.300842 1.520940 -0.147268 -1.161985 2.935472 0.146009 -0.266501 -0.014966 0.000000 0.000000 0.000000 2.125031 1.482994 3.079650 -10.303447 18.833039 14.950490 -1.844370 5.583565 5.601502 0.000000 0.000000 0.000000 1.364764 -0.811577 3.147465 -0.146969 -0.219765 -5.738947 -0.597987 -5.252877 -1.732016 -9.422739 -3.555631 -64.959047 16.589877 -18.738457 -1.403052 0.000000 0.000000 0.000000 0.417791 -0.852038 3.892613 -0.594987 0.779860 21.063458 -13.677232 -6.677505 0.046898 9.148571 32.431903 46.857563 7.092527 31.546974 -2.650167 0.000000 0.000000 0.000000 
0.391347 31.572788 -1.607931 0.000000 0.000000 0.000000 146.074688 -82.618870 143.071781 -1.416762 28.819573 28.442388 33.094968 9.119319 -5.295679 -19.789314 15.379392 -34.250714 -14.993512 -4.834744 -7.240374 0.000000 0.000000 0.000000 143.380588 -82.577615 139.753580 -22.675451 -10.201277 -3.889192 28.873306 -11.229177 -0.407160 -14.169087 -11.624272 27.779505 5.750037 2.147347 -13.314395 0.000000 0.000000 0.000000 130.655973 -85.595268 128.496199 9.036104 -4.148641 1.624050 -0.532463 -1.565671 3.073369 0.109945 -0.262987 0.026256 0.000000 0.000000 0.000000 1.957235 1.188501 3.143367 -10.170101 18.912355 13.848798 -2.139749 8.409155 6.344874 0.000000 0.000000 0.000000 1.130089 -1.146288 3.184383 -0.220968 -0.986430 -5.341302 -0.098777 -5.061162 -1.751515 -7.670452 -4.327544 -65.733017 14.736321 -18.786765 -2.374449 0.000000 0.000000 0.000000 0.230934 -1.194888 3.947919 -0.542194 1.164734 20.762937 -12.603590 -6.325819 0.330284 7.446889 33.346192 47.566226 6.673192 30.749737 -2.679227 0.000000 0.000000 0.000000 
0.462684 31.362856 -3.201117 0.000000 0.000000 0.000000 153.443328 -83.210310 150.330346 -1.928917 24.429724 30.127879 36.885234 9.153280 -6.148257 -16.597911 13.367470 -34.164149 -23.282467 -3.594474 -9.264668 0.000000 0.000000 0.000000 149.715274 -83.151891 145.952987 -21.718554 -10.168318 -0.070898 30.739632 -10.804966 -1.264853 -18.224169 -11.791808 23.590162 9.636725 1.569509 -14.763906 0.000000 0.000000 0.000000 144.777443 -85.734966 142.703634 9.517761 -4.670253 1.885362 -0.905477 -1.857318 3.019195 0.075034 -0.351860 0.034116 0.000000 0.000000 0.000000 1.758730 1.001127 3.069682 -9.993779 19.146733 13.319999 -3.016869 11.313774 6.705228 0.000000 0.000000 0.000000 0.872651 -1.371883 3.013977 -0.321665 -1.854966 -4.774447 0.554024 -4.506927 -1.924074 -6.242142 -3.841817 -66.511057 13.114853 -19.515174 -3.372602 0.000000 0.000000 0.000000 0.042908 -1.419873 3.800752 -0.489171 1.944048 20.484321 -11.255440 -5.649572 0.359764 5.929170 34.061255 48.282314 6.606852 30.084371 -2.692671 0.000000 0.000000 0.000000 
0.421533 31.174772 -4.740923 0.000000 0.000000 0.000000 161.280328 -83.787064 158.014350 -2.503903 19.347942 30.979071 41.947412 9.763327 -7.544052 -14.501832 11.780762 -31.780570 -29.428830 -1.856477 -11.666792 0.000000 0.000000 0.000000 156.586704 -83.777106 152.753137 -20.317168 -10.797487 3.428244 33.168853 -10.132298 -1.994923 -22.396151 -11.419190 18.341402 13.351909 0.901985 -16.657780 0.000000 0.000000 0.000000 157.215969 -85.896923 155.110591 10.063783 -4.780195 2.285154 -1.248613 -2.006046 2.773610 0.053181 -0.501341 0.047195 0.000000 0.000000 0.000000 1.534634 0.958925 2.859259 -9.698056 19.415193 13.499812 -4.314259 13.804569 6.562909 0.000000 0.000000 0.000000 0.593645 -1.440621 2.617440 -0.445593 -2.924250 -4.395352 1.090683 -3.697230 -2.332952 -5.161884 -2.117298 -67.263915 12.065308 -20.563123 -4.243705 0.000000 0.000000 0.000000 -0.133489 -1.461125 3.477477 -0.454239 3.160881 20.283172 -9.880491 -4.993603 0.066207 4.882453 34.689660 48.765908 6.873035 29.573507 -2.693491 0.000000 0.000000 0.000000 
0.315287 30.988287 -6.235392 0.000000 0.000000 0.000000 169.469670 -83.929624 166.032528 -3.190726 14.211850 30.668389 48.116494 11.548544 -9.654735 -14.630924 11.152780 -26.504476 -32.662538 0.047705 -14.566705 0.000000 0.000000 0.000000 162.882936 -84.370363 158.988827 -19.106168 -11.611067 5.935089 35.890988 -8.379414 -2.630424 -24.977575 -10.179607 14.583953 14.605195 0.292130 -19.388149 0.000000 0.000000 0.000000 171.718551 -86.031724 169.572533 10.626466 -4.411169 2.775298 -1.528228 -1.989462 2.394912 0.038381 -0.708387 0.120518 0.000000 0.000000 0.000000 1.306778 1.068065 2.508039 -9.284524 19.640380 14.418444 -5.969513 16.022657 5.775704 0.000000 0.000000 0.000000 0.357058 -1.348776 2.065774 -0.592617 -4.186676 -4.496808 1.669544 -2.629165 -2.676780 -4.030396 0.233542 -67.910358 11.911642 -21.660143 -4.848163 0.000000 0.000000 0.000000 -0.299550 -1.303424 3.040725 -0.427218 4.628201 20.083002 -8.650599 -4.810859 -0.259625 4.385606 35.317669 48.917180 7.387586 29.280304 -2.682299 0.000000 0.000000 0.000000 
